<svg width="32" height="32" viewBox="0 0 32 32" fill="none" xmlns="http://www.w3.org/2000/svg">
<path fill-rule="evenodd" clip-rule="evenodd" d="M25.5458 26.0458C26.3269 25.2648 26.3269 23.9985 25.5458 23.2174L18.8285 16.5001L25.5461 9.78246C26.3272 9.00142 26.3272 7.73509 25.5461 6.95404C24.7651 6.17299 23.4988 6.17299 22.7177 6.95404L16.0001 13.6717L9.28238 6.95395C8.50133 6.1729 7.235 6.1729 6.45395 6.95395C5.6729 7.735 5.6729 9.00133 6.45395 9.78238L13.1717 16.5001L6.45425 23.2175C5.6732 23.9985 5.6732 25.2649 6.45425 26.0459C7.2353 26.827 8.50163 26.827 9.28268 26.0459L16.0001 19.3285L22.7174 26.0458C23.4985 26.8269 24.7648 26.8269 25.5458 26.0458Z" fill="black"/>
</svg>
