<svg width="64" height="64" viewBox="0 0 64 64" fill="none" xmlns="http://www.w3.org/2000/svg">
<path fill-rule="evenodd" clip-rule="evenodd" d="M60 32C60 47.464 47.464 60 32 60C16.536 60 4 47.464 4 32C4 16.536 16.536 4 32 4C47.464 4 60 16.536 60 32ZM64 32C64 49.6731 49.6731 64 32 64C14.3269 64 0 49.6731 0 32C0 14.3269 14.3269 0 32 0C49.6731 0 64 14.3269 64 32ZM31.3962 13.283L15.6981 28.9811L20.5283 34.4151L28.9811 25.3585V49.5094H35.0189V25.3585L43.4717 34.4151L48.3019 28.9811L32 13.283H31.3962Z" fill="#828282"/>
</svg>
